<svg width="21" height="27" viewBox="0 0 21 27" fill="none" xmlns="http://www.w3.org/2000/svg" data-test="tooth"><path stroke="#59399e" d="M10.6945 1.23705C11.0455 1.32505 11.2585 1.62905 11.3955 1.90505C11.6615 2.43605 12.1705 3.71205 12.6105 5.03305C12.8315 5.69705 13.0395 6.38206 13.1915 7.00106C13.3415 7.60906 13.4485 8.18906 13.4485 8.62806C13.4485 9.15006 13.5965 9.80006 13.7995 10.4241C13.9185 10.7921 14.0525 11.137 14.1745 11.422C14.3375 10.759 14.4485 9.81006 14.4485 9.12806V5.62806C14.4485 4.87106 14.5085 4.32306 14.6455 3.96506C14.7145 3.78706 14.8275 3.58505 15.0315 3.46105C15.2635 3.32005 15.5085 3.33905 15.6965 3.41405C15.8665 3.48205 16.0055 3.59905 16.1095 3.70505C16.2195 3.81505 16.3215 3.94505 16.4125 4.07605C16.5965 4.33805 16.7655 4.64305 16.8955 4.90505C17.1645 5.44105 17.5486 6.47205 17.8636 7.47905C18.0226 7.98705 18.1665 8.50005 18.2715 8.95305C18.3745 9.39505 18.4485 9.81706 18.4485 10.1281C18.4485 10.5681 18.5625 11.2711 18.7485 12.0781C18.9325 12.8741 19.1775 13.7341 19.4225 14.4701C19.9345 16.0041 20.4485 18.5591 20.4485 20.1281C20.4485 20.9831 20.1656 21.8121 19.8336 22.4771C19.5016 23.1411 19.0966 23.6881 18.8026 23.9821C18.5776 24.2061 17.8645 24.6391 17.5735 24.7141C17.4715 24.7401 16.0684 24.5136 14.5 24C11.989 23.295 10.6445 23.3359 10.1445 23.3359C10 23.3359 9.66032 23.6314 10.25 23.7266C11.7003 23.9606 15.125 24.2734 15.8359 24.6289L16.0703 24.709L16.3047 24.7891C16.6367 24.9961 16.2617 25.1289 16.259 25.1503C15.259 25.6503 13.0665 25.1285 12.1725 25.5751C11.8305 25.7461 11.4045 25.8141 10.9925 25.8311C10.5705 25.8481 10.1155 25.8141 9.68555 25.7471C9.25455 25.6811 8.83454 25.581 8.48254 25.461C8.15354 25.349 7.80755 25.1941 7.59555 24.9821C7.55355 24.9401 7.45554 24.8771 7.25854 24.8181C7.06654 24.7611 6.82054 24.7181 6.52354 24.6881C5.92854 24.6291 5.20655 24.6281 4.44855 24.6281C2.66155 24.6281 1.51655 23.4121 0.974548 21.7861C0.702548 20.9701 0.573547 19.9131 0.573547 18.9411C0.573547 17.9861 0.697541 17.013 1.00154 16.405C1.23354 15.941 1.59854 14.9721 1.90854 13.9791C2.06254 13.4871 2.19955 13.0001 2.29755 12.5781C2.39855 12.1451 2.44855 11.8171 2.44855 11.6281C2.44855 11.3181 2.52254 10.8951 2.62454 10.4411C2.72954 9.97506 2.87254 9.43405 3.02954 8.86905C3.13554 8.48605 3.24855 8.09205 3.36055 7.70105C3.58055 6.92905 3.79855 6.16605 3.96355 5.50705C4.09655 4.97605 4.26554 4.52906 4.45354 4.18006C4.63354 3.84606 4.85854 3.54906 5.12854 3.38706C5.27054 3.30206 5.45855 3.23506 5.67055 3.26206C5.89355 3.29106 6.06555 3.41505 6.18155 3.56705C6.38755 3.83605 6.44855 4.22906 6.44855 4.62806C6.44855 5.33006 6.56554 6.03905 6.69154 6.79605L6.69554 6.81505C6.81754 7.55205 6.94855 8.33706 6.94855 9.12806C6.94855 9.66106 6.94854 10.3 6.96954 10.862C7.11854 10.503 7.27354 10.1071 7.41554 9.71006C7.56854 9.28106 7.70354 8.85805 7.80054 8.48705C7.89954 8.10605 7.94855 7.81206 7.94855 7.62806C7.94855 7.07406 8.08254 6.15805 8.27254 5.27405C8.46054 4.39305 8.72154 3.46505 9.00154 2.90505L9.00455 2.89705C9.12655 2.65205 9.25754 2.39206 9.38954 2.16106C9.51954 1.93406 9.67055 1.69906 9.84555 1.52506C10.0076 1.36206 10.3075 1.14005 10.6945 1.23705Z"></path></svg>