<svg viewBox="0 0 1440 320" xmlns="http://www.w3.org/2000/svg">
  <path fill="#6b46c1" fillOpacity="1" d="M0,256L48,250.7C96,245,192,235,288,208C384,181,480,139,576,138.7C672,139,768,181,864,208C960,235,1056,245,1152,213.3C1248,181,1344,107,1392,69.3L1440,32L1440,320L1392,320C1344,320,1248,320,1152,320C1056,320,960,320,864,320C768,320,672,320,576,320C480,320,384,320,288,320C192,320,96,320,48,320L0,320Z"></path>
  <path fill="#805ad5" fillOpacity="1" d="M0,320L48,314.7C96,309,192,299,288,272C384,245,480,203,576,202.7C672,203,768,245,864,272C960,299,1056,309,1152,277.3C1248,245,1344,171,1392,133.3L1440,96L1440,320L1392,320C1344,320,1248,320,1152,320C1056,320,960,320,864,320C768,320,672,320,576,320C480,320,384,320,288,320C192,320,96,320,48,320L0,320Z"></path>
</svg>

